<svg xmlns="http://www.w3.org/2000/svg" xmlns:xlink="http://www.w3.org/1999/xlink" width="418" zoomAndPan="magnify" viewBox="0 0 313.5 143.249994" height="191" preserveAspectRatio="xMidYMid meet" version="1.0"><defs><g/><clipPath id="597919c594"><path d="M 97.722656 59.109375 L 215.269531 59.109375 L 215.269531 78.503906 L 97.722656 78.503906 Z M 97.722656 59.109375 " clip-rule="nonzero"/></clipPath><clipPath id="5c551b5901"><path d="M 113 0.0703125 L 200 0.0703125 L 200 55 L 113 55 Z M 113 0.0703125 " clip-rule="nonzero"/></clipPath><clipPath id="844069d432"><path d="M 145 9.476562 L 185.546875 9.476562 L 185.546875 35 L 145 35 Z M 145 9.476562 " clip-rule="nonzero"/></clipPath><clipPath id="cf9c218917"><path d="M 127.113281 24 L 151 24 L 151 28 L 127.113281 28 Z M 127.113281 24 " clip-rule="nonzero"/></clipPath></defs><g clip-path="url(#597919c594)"><path fill="#161b6e" d="M 173.457031 73.566406 L 139.539062 73.566406 C 139.304688 73.566406 139.15625 73.320312 139.261719 73.113281 L 141.875 68.089844 C 141.925781 67.984375 142.035156 67.921875 142.148438 67.921875 L 170.84375 67.921875 C 170.960938 67.921875 171.066406 67.984375 171.121094 68.089844 L 173.730469 73.113281 C 173.839844 73.320312 173.691406 73.566406 173.457031 73.566406 Z M 214.519531 74.136719 L 200.476562 60.09375 C 199.996094 59.613281 199.347656 59.34375 198.667969 59.34375 L 114.328125 59.34375 C 113.648438 59.34375 113 59.613281 112.519531 60.09375 L 98.472656 74.136719 C 97.992188 74.617188 97.722656 75.269531 97.722656 75.945312 C 97.722656 77.359375 98.871094 78.503906 100.28125 78.503906 L 212.714844 78.503906 C 214.125 78.503906 215.269531 77.359375 215.269531 75.945312 C 215.269531 75.269531 215 74.617188 214.519531 74.136719 " fill-opacity="1" fill-rule="nonzero"/></g><g clip-path="url(#5c551b5901)"><path fill="#161b6e" d="M 195.523438 0.101562 L 117.472656 0.101562 C 115.214844 0.101562 113.367188 1.949219 113.367188 4.207031 L 113.367188 50.542969 C 113.367188 52.804688 115.214844 54.652344 117.472656 54.652344 L 195.523438 54.652344 C 197.78125 54.652344 199.628906 52.804688 199.628906 50.542969 L 199.628906 4.207031 C 199.628906 1.949219 197.78125 0.101562 195.523438 0.101562 Z M 194.875 4.851562 L 194.875 49.898438 L 118.117188 49.898438 L 118.117188 4.851562 L 194.875 4.851562 " fill-opacity="1" fill-rule="nonzero"/></g><g clip-path="url(#844069d432)"><path fill="#ff3131" d="M 185.886719 16.355469 L 181.824219 33.234375 C 181.820312 33.394531 181.789062 33.550781 181.726562 33.699219 C 181.664062 33.851562 181.578125 33.984375 181.460938 34.097656 C 181.347656 34.210938 181.214844 34.300781 181.066406 34.363281 C 180.917969 34.425781 180.761719 34.457031 180.597656 34.457031 L 153.21875 34.65625 C 153.054688 34.65625 152.898438 34.625 152.75 34.5625 C 152.601562 34.5 152.46875 34.410156 152.351562 34.296875 C 152.238281 34.179688 152.148438 34.046875 152.085938 33.898438 C 152.023438 33.75 151.992188 33.59375 151.992188 33.429688 L 151.992188 16.351562 C 151.992188 16.320312 151.996094 16.285156 151.996094 16.253906 L 151.628906 12.949219 L 147.578125 12.949219 C 147.355469 12.9375 147.140625 12.886719 146.9375 12.796875 C 146.734375 12.703125 146.554688 12.578125 146.398438 12.417969 C 146.242188 12.253906 146.125 12.070312 146.039062 11.863281 C 145.957031 11.65625 145.914062 11.4375 145.914062 11.214844 C 145.914062 10.992188 145.957031 10.773438 146.039062 10.566406 C 146.125 10.359375 146.242188 10.175781 146.398438 10.011719 C 146.554688 9.851562 146.734375 9.722656 146.9375 9.632812 C 147.140625 9.539062 147.355469 9.488281 147.578125 9.480469 L 154.722656 9.480469 C 154.726562 9.488281 154.726562 9.492188 154.722656 9.5 L 155.109375 12.949219 L 155.355469 15.128906 L 184.660156 15.128906 C 184.824219 15.128906 184.980469 15.160156 185.128906 15.222656 C 185.28125 15.285156 185.410156 15.375 185.527344 15.488281 C 185.640625 15.605469 185.730469 15.738281 185.792969 15.886719 C 185.855469 16.035156 185.886719 16.191406 185.886719 16.355469 Z M 185.886719 16.355469 " fill-opacity="1" fill-rule="nonzero"/></g><path fill="#ff3131" d="M 160.511719 40.207031 C 160.511719 40.5 160.484375 40.789062 160.425781 41.074219 C 160.371094 41.363281 160.285156 41.640625 160.171875 41.914062 C 160.0625 42.183594 159.925781 42.441406 159.761719 42.683594 C 159.597656 42.925781 159.414062 43.152344 159.207031 43.359375 C 159 43.566406 158.773438 43.75 158.53125 43.914062 C 158.289062 44.078125 158.03125 44.214844 157.761719 44.324219 C 157.488281 44.4375 157.210938 44.523438 156.921875 44.578125 C 156.636719 44.636719 156.347656 44.664062 156.054688 44.664062 C 155.761719 44.664062 155.46875 44.636719 155.183594 44.578125 C 154.894531 44.523438 154.617188 44.4375 154.347656 44.324219 C 154.078125 44.214844 153.820312 44.078125 153.574219 43.914062 C 153.332031 43.75 153.105469 43.566406 152.898438 43.359375 C 152.691406 43.152344 152.507812 42.925781 152.34375 42.683594 C 152.183594 42.441406 152.046875 42.183594 151.933594 41.914062 C 151.820312 41.640625 151.738281 41.363281 151.679688 41.074219 C 151.621094 40.789062 151.59375 40.5 151.59375 40.207031 C 151.59375 39.914062 151.621094 39.621094 151.679688 39.335938 C 151.738281 39.046875 151.820312 38.769531 151.933594 38.5 C 152.046875 38.226562 152.183594 37.972656 152.34375 37.726562 C 152.507812 37.484375 152.691406 37.257812 152.898438 37.050781 C 153.105469 36.84375 153.332031 36.660156 153.574219 36.496094 C 153.820312 36.335938 154.078125 36.195312 154.347656 36.085938 C 154.617188 35.972656 154.894531 35.886719 155.183594 35.832031 C 155.46875 35.773438 155.761719 35.746094 156.054688 35.746094 C 156.347656 35.746094 156.636719 35.773438 156.921875 35.832031 C 157.210938 35.886719 157.488281 35.972656 157.761719 36.085938 C 158.03125 36.195312 158.289062 36.335938 158.53125 36.496094 C 158.773438 36.660156 159 36.84375 159.207031 37.050781 C 159.414062 37.257812 159.597656 37.484375 159.761719 37.726562 C 159.925781 37.972656 160.0625 38.226562 160.171875 38.5 C 160.285156 38.769531 160.371094 39.046875 160.425781 39.335938 C 160.484375 39.621094 160.511719 39.914062 160.511719 40.207031 Z M 160.511719 40.207031 " fill-opacity="1" fill-rule="nonzero"/><path fill="#ff3131" d="M 173.101562 40.207031 C 173.101562 40.5 173.070312 40.789062 173.015625 41.074219 C 172.957031 41.363281 172.871094 41.640625 172.761719 41.914062 C 172.648438 42.183594 172.511719 42.441406 172.347656 42.683594 C 172.1875 42.925781 172 43.152344 171.792969 43.359375 C 171.585938 43.566406 171.363281 43.75 171.117188 43.914062 C 170.875 44.078125 170.617188 44.214844 170.347656 44.324219 C 170.078125 44.4375 169.796875 44.523438 169.511719 44.578125 C 169.222656 44.636719 168.933594 44.664062 168.640625 44.664062 C 168.347656 44.664062 168.058594 44.636719 167.769531 44.578125 C 167.484375 44.523438 167.203125 44.4375 166.933594 44.324219 C 166.664062 44.214844 166.40625 44.078125 166.164062 43.914062 C 165.917969 43.75 165.695312 43.566406 165.488281 43.359375 C 165.28125 43.152344 165.09375 42.925781 164.933594 42.683594 C 164.769531 42.441406 164.632812 42.183594 164.519531 41.914062 C 164.40625 41.640625 164.324219 41.363281 164.265625 41.074219 C 164.210938 40.789062 164.179688 40.5 164.179688 40.207031 C 164.179688 39.914062 164.210938 39.621094 164.265625 39.335938 C 164.324219 39.046875 164.40625 38.769531 164.519531 38.5 C 164.632812 38.226562 164.769531 37.972656 164.933594 37.726562 C 165.09375 37.484375 165.28125 37.257812 165.488281 37.050781 C 165.695312 36.84375 165.917969 36.660156 166.164062 36.496094 C 166.40625 36.335938 166.664062 36.195312 166.933594 36.085938 C 167.203125 35.972656 167.484375 35.886719 167.769531 35.832031 C 168.058594 35.773438 168.347656 35.746094 168.640625 35.746094 C 168.933594 35.746094 169.222656 35.773438 169.511719 35.832031 C 169.796875 35.886719 170.078125 35.972656 170.347656 36.085938 C 170.617188 36.195312 170.875 36.335938 171.117188 36.496094 C 171.363281 36.660156 171.585938 36.84375 171.792969 37.050781 C 172 37.257812 172.1875 37.484375 172.347656 37.726562 C 172.511719 37.972656 172.648438 38.226562 172.761719 38.5 C 172.871094 38.769531 172.957031 39.046875 173.015625 39.335938 C 173.070312 39.621094 173.101562 39.914062 173.101562 40.207031 Z M 173.101562 40.207031 " fill-opacity="1" fill-rule="nonzero"/><path fill="#ff3131" d="M 138.808594 16.617188 L 149.015625 16.617188 C 149.175781 16.617188 149.324219 16.648438 149.472656 16.707031 C 149.617188 16.765625 149.746094 16.851562 149.859375 16.964844 C 149.96875 17.078125 150.054688 17.207031 150.117188 17.351562 C 150.175781 17.496094 150.207031 17.648438 150.207031 17.804688 L 150.207031 18.101562 C 150.207031 18.261719 150.175781 18.414062 150.117188 18.558594 C 150.054688 18.703125 149.96875 18.832031 149.859375 18.945312 C 149.746094 19.054688 149.617188 19.140625 149.472656 19.203125 C 149.324219 19.261719 149.175781 19.292969 149.015625 19.292969 L 138.808594 19.292969 C 138.648438 19.292969 138.5 19.261719 138.351562 19.203125 C 138.207031 19.140625 138.078125 19.054688 137.96875 18.945312 C 137.855469 18.832031 137.769531 18.703125 137.710938 18.558594 C 137.648438 18.414062 137.617188 18.261719 137.617188 18.101562 L 137.617188 17.804688 C 137.617188 17.648438 137.648438 17.496094 137.710938 17.351562 C 137.769531 17.207031 137.855469 17.078125 137.96875 16.964844 C 138.078125 16.851562 138.207031 16.765625 138.351562 16.707031 C 138.5 16.648438 138.648438 16.617188 138.808594 16.617188 Z M 138.808594 16.617188 " fill-opacity="1" fill-rule="nonzero"/><path fill="#ff3131" d="M 138.808594 33.265625 L 149.015625 33.265625 C 149.175781 33.265625 149.324219 33.296875 149.472656 33.359375 C 149.617188 33.417969 149.746094 33.503906 149.859375 33.617188 C 149.96875 33.726562 150.054688 33.855469 150.117188 34 C 150.175781 34.148438 150.207031 34.300781 150.207031 34.457031 L 150.207031 34.753906 C 150.207031 34.910156 150.175781 35.0625 150.117188 35.210938 C 150.054688 35.355469 149.96875 35.484375 149.859375 35.59375 C 149.746094 35.707031 149.617188 35.792969 149.472656 35.851562 C 149.324219 35.914062 149.175781 35.945312 149.015625 35.945312 L 138.808594 35.945312 C 138.648438 35.945312 138.5 35.914062 138.351562 35.851562 C 138.207031 35.792969 138.078125 35.707031 137.96875 35.59375 C 137.855469 35.484375 137.769531 35.355469 137.710938 35.210938 C 137.648438 35.0625 137.617188 34.910156 137.617188 34.753906 L 137.617188 34.457031 C 137.617188 34.300781 137.648438 34.148438 137.710938 34 C 137.769531 33.855469 137.855469 33.726562 137.96875 33.617188 C 138.078125 33.503906 138.207031 33.417969 138.351562 33.359375 C 138.5 33.296875 138.648438 33.265625 138.808594 33.265625 Z M 138.808594 33.265625 " fill-opacity="1" fill-rule="nonzero"/><g clip-path="url(#cf9c218917)"><path fill="#ff3131" d="M 128.449219 24.742188 L 148.867188 24.742188 C 149.046875 24.742188 149.214844 24.777344 149.378906 24.847656 C 149.542969 24.914062 149.6875 25.011719 149.8125 25.136719 C 149.9375 25.261719 150.035156 25.40625 150.105469 25.570312 C 150.171875 25.734375 150.207031 25.90625 150.207031 26.082031 C 150.207031 26.257812 150.171875 26.429688 150.105469 26.59375 C 150.035156 26.757812 149.9375 26.902344 149.8125 27.027344 C 149.6875 27.152344 149.542969 27.25 149.378906 27.316406 C 149.214844 27.386719 149.046875 27.417969 148.867188 27.417969 L 128.449219 27.417969 C 128.273438 27.417969 128.101562 27.386719 127.9375 27.316406 C 127.773438 27.25 127.628906 27.152344 127.503906 27.027344 C 127.378906 26.902344 127.28125 26.757812 127.214844 26.59375 C 127.148438 26.429688 127.113281 26.257812 127.113281 26.082031 C 127.113281 25.90625 127.148438 25.734375 127.214844 25.570312 C 127.28125 25.40625 127.378906 25.261719 127.503906 25.136719 C 127.628906 25.011719 127.773438 24.914062 127.9375 24.847656 C 128.101562 24.777344 128.273438 24.742188 128.449219 24.742188 Z M 128.449219 24.742188 " fill-opacity="1" fill-rule="nonzero"/></g><g fill="#161b6e" fill-opacity="1"><g transform="translate(64.766745, 112.589283)"><g><path d="M 9.15625 0.359375 C 7.625 0.359375 6.269531 0.0976562 5.09375 -0.421875 C 3.925781 -0.953125 3.003906 -1.707031 2.328125 -2.6875 C 1.648438 -3.675781 1.300781 -4.878906 1.28125 -6.296875 L 5.3125 -6.296875 C 5.351562 -5.316406 5.707031 -4.492188 6.375 -3.828125 C 7.039062 -3.160156 7.957031 -2.828125 9.125 -2.828125 C 10.144531 -2.828125 10.953125 -3.070312 11.546875 -3.5625 C 12.140625 -4.050781 12.4375 -4.703125 12.4375 -5.515625 C 12.4375 -6.367188 12.171875 -7.035156 11.640625 -7.515625 C 11.117188 -7.992188 10.421875 -8.378906 9.546875 -8.671875 C 8.671875 -8.972656 7.738281 -9.296875 6.75 -9.640625 C 5.132812 -10.191406 3.90625 -10.90625 3.0625 -11.78125 C 2.21875 -12.65625 1.796875 -13.820312 1.796875 -15.28125 C 1.773438 -16.507812 2.066406 -17.566406 2.671875 -18.453125 C 3.273438 -19.335938 4.101562 -20.023438 5.15625 -20.515625 C 6.21875 -21.003906 7.429688 -21.25 8.796875 -21.25 C 10.191406 -21.25 11.421875 -21 12.484375 -20.5 C 13.554688 -20 14.394531 -19.300781 15 -18.40625 C 15.601562 -17.519531 15.925781 -16.457031 15.96875 -15.21875 L 11.875 -15.21875 C 11.851562 -15.957031 11.566406 -16.609375 11.015625 -17.171875 C 10.472656 -17.742188 9.71875 -18.03125 8.75 -18.03125 C 7.90625 -18.050781 7.203125 -17.84375 6.640625 -17.40625 C 6.078125 -16.976562 5.796875 -16.359375 5.796875 -15.546875 C 5.796875 -14.847656 6.015625 -14.296875 6.453125 -13.890625 C 6.890625 -13.484375 7.484375 -13.140625 8.234375 -12.859375 C 8.992188 -12.578125 9.859375 -12.28125 10.828125 -11.96875 C 11.867188 -11.613281 12.816406 -11.195312 13.671875 -10.71875 C 14.523438 -10.238281 15.207031 -9.601562 15.71875 -8.8125 C 16.238281 -8.03125 16.5 -7.023438 16.5 -5.796875 C 16.5 -4.691406 16.21875 -3.671875 15.65625 -2.734375 C 15.101562 -1.804688 14.28125 -1.054688 13.1875 -0.484375 C 12.09375 0.078125 10.75 0.359375 9.15625 0.359375 Z M 9.15625 0.359375 "/></g></g></g><g fill="#161b6e" fill-opacity="1"><g transform="translate(82.583443, 112.589283)"><g><path d="M 2.03125 0 L 2.03125 -20.890625 L 5.84375 -20.890625 L 5.84375 -12.203125 L 15.21875 -12.203125 L 15.21875 -20.890625 L 19.046875 -20.890625 L 19.046875 0 L 15.21875 0 L 15.21875 -9.109375 L 5.84375 -9.109375 L 5.84375 0 Z M 2.03125 0 "/></g></g></g><g fill="#161b6e" fill-opacity="1"><g transform="translate(103.65311, 112.589283)"><g><path d="M 11.8125 0.359375 C 9.726562 0.359375 7.90625 -0.0976562 6.34375 -1.015625 C 4.78125 -1.929688 3.554688 -3.195312 2.671875 -4.8125 C 1.785156 -6.4375 1.34375 -8.316406 1.34375 -10.453125 C 1.34375 -12.578125 1.785156 -14.445312 2.671875 -16.0625 C 3.554688 -17.6875 4.78125 -18.957031 6.34375 -19.875 C 7.90625 -20.789062 9.726562 -21.25 11.8125 -21.25 C 13.882812 -21.25 15.707031 -20.789062 17.28125 -19.875 C 18.851562 -18.957031 20.078125 -17.6875 20.953125 -16.0625 C 21.828125 -14.445312 22.265625 -12.578125 22.265625 -10.453125 C 22.265625 -8.316406 21.828125 -6.4375 20.953125 -4.8125 C 20.078125 -3.195312 18.851562 -1.929688 17.28125 -1.015625 C 15.707031 -0.0976562 13.882812 0.359375 11.8125 0.359375 Z M 11.8125 -3.078125 C 13.800781 -3.078125 15.390625 -3.734375 16.578125 -5.046875 C 17.765625 -6.359375 18.359375 -8.160156 18.359375 -10.453125 C 18.359375 -12.734375 17.765625 -14.53125 16.578125 -15.84375 C 15.390625 -17.15625 13.800781 -17.8125 11.8125 -17.8125 C 9.820312 -17.8125 8.226562 -17.15625 7.03125 -15.84375 C 5.84375 -14.53125 5.25 -12.734375 5.25 -10.453125 C 5.25 -8.160156 5.84375 -6.359375 7.03125 -5.046875 C 8.226562 -3.734375 9.820312 -3.078125 11.8125 -3.078125 Z M 11.8125 -3.078125 "/></g></g></g><g fill="#161b6e" fill-opacity="1"><g transform="translate(127.259491, 112.589283)"><g><path d="M 2.03125 0 L 2.03125 -20.890625 L 9.765625 -20.890625 C 11.429688 -20.890625 12.8125 -20.609375 13.90625 -20.046875 C 15 -19.492188 15.8125 -18.726562 16.34375 -17.75 C 16.882812 -16.78125 17.15625 -15.6875 17.15625 -14.46875 C 17.15625 -13.320312 16.894531 -12.265625 16.375 -11.296875 C 15.863281 -10.328125 15.0625 -9.550781 13.96875 -8.96875 C 12.875 -8.382812 11.472656 -8.09375 9.765625 -8.09375 L 5.84375 -8.09375 L 5.84375 0 Z M 5.84375 -11.1875 L 9.515625 -11.1875 C 10.847656 -11.1875 11.804688 -11.476562 12.390625 -12.0625 C 12.984375 -12.65625 13.28125 -13.457031 13.28125 -14.46875 C 13.28125 -15.507812 12.984375 -16.320312 12.390625 -16.90625 C 11.804688 -17.488281 10.847656 -17.78125 9.515625 -17.78125 L 5.84375 -17.78125 Z M 5.84375 -11.1875 "/></g></g></g><g fill="#161b6e" fill-opacity="1"><g transform="translate(145.374634, 112.589283)"><g><path d="M 2.03125 0 L 2.03125 -20.890625 L 5.84375 -20.890625 L 5.84375 0 Z M 2.03125 0 "/></g></g></g><g fill="#161b6e" fill-opacity="1"><g transform="translate(153.253382, 112.589283)"><g><path d="M 2.03125 0 L 2.03125 -20.890625 L 15.515625 -20.890625 L 15.515625 -17.8125 L 5.84375 -17.8125 L 5.84375 -11.96875 L 13.671875 -11.96875 L 13.671875 -8.953125 L 5.84375 -8.953125 L 5.84375 0 Z M 2.03125 0 "/></g></g></g><g fill="#161b6e" fill-opacity="1"><g transform="translate(169.69727, 112.589283)"><g><path d="M 7.4375 0 L 7.4375 -7.4375 L 0.421875 -20.890625 L 4.75 -20.890625 L 9.375 -11.25 L 13.96875 -20.890625 L 18.234375 -20.890625 L 11.25 -7.4375 L 11.25 0 Z M 7.4375 0 "/></g></g></g><g fill="#161b6e" fill-opacity="1"><g transform="translate(188.349589, 112.589283)"><g/></g></g><g fill="#161b6e" fill-opacity="1"><g transform="translate(195.452393, 112.589283)"><g><path d="M 11.484375 0.359375 C 9.378906 0.359375 7.570312 -0.09375 6.0625 -1 C 4.550781 -1.90625 3.382812 -3.164062 2.5625 -4.78125 C 1.75 -6.40625 1.34375 -8.285156 1.34375 -10.421875 C 1.34375 -12.546875 1.75 -14.421875 2.5625 -16.046875 C 3.382812 -17.679688 4.550781 -18.957031 6.0625 -19.875 C 7.570312 -20.789062 9.378906 -21.25 11.484375 -21.25 C 13.992188 -21.25 16.050781 -20.625 17.65625 -19.375 C 19.257812 -18.132812 20.257812 -16.390625 20.65625 -14.140625 L 16.4375 -14.140625 C 16.1875 -15.273438 15.632812 -16.164062 14.78125 -16.8125 C 13.9375 -17.457031 12.820312 -17.78125 11.4375 -17.78125 C 9.5 -17.78125 7.984375 -17.125 6.890625 -15.8125 C 5.796875 -14.5 5.25 -12.703125 5.25 -10.421875 C 5.25 -8.128906 5.796875 -6.332031 6.890625 -5.03125 C 7.984375 -3.726562 9.5 -3.078125 11.4375 -3.078125 C 12.820312 -3.078125 13.9375 -3.378906 14.78125 -3.984375 C 15.632812 -4.585938 16.1875 -5.425781 16.4375 -6.5 L 20.65625 -6.5 C 20.257812 -4.351562 19.257812 -2.671875 17.65625 -1.453125 C 16.050781 -0.242188 13.992188 0.359375 11.484375 0.359375 Z M 11.484375 0.359375 "/></g></g></g><g fill="#161b6e" fill-opacity="1"><g transform="translate(217.447209, 112.589283)"><g><path d="M 11.8125 0.359375 C 9.726562 0.359375 7.90625 -0.0976562 6.34375 -1.015625 C 4.78125 -1.929688 3.554688 -3.195312 2.671875 -4.8125 C 1.785156 -6.4375 1.34375 -8.316406 1.34375 -10.453125 C 1.34375 -12.578125 1.785156 -14.445312 2.671875 -16.0625 C 3.554688 -17.6875 4.78125 -18.957031 6.34375 -19.875 C 7.90625 -20.789062 9.726562 -21.25 11.8125 -21.25 C 13.882812 -21.25 15.707031 -20.789062 17.28125 -19.875 C 18.851562 -18.957031 20.078125 -17.6875 20.953125 -16.0625 C 21.828125 -14.445312 22.265625 -12.578125 22.265625 -10.453125 C 22.265625 -8.316406 21.828125 -6.4375 20.953125 -4.8125 C 20.078125 -3.195312 18.851562 -1.929688 17.28125 -1.015625 C 15.707031 -0.0976562 13.882812 0.359375 11.8125 0.359375 Z M 11.8125 -3.078125 C 13.800781 -3.078125 15.390625 -3.734375 16.578125 -5.046875 C 17.765625 -6.359375 18.359375 -8.160156 18.359375 -10.453125 C 18.359375 -12.734375 17.765625 -14.53125 16.578125 -15.84375 C 15.390625 -17.15625 13.800781 -17.8125 11.8125 -17.8125 C 9.820312 -17.8125 8.226562 -17.15625 7.03125 -15.84375 C 5.84375 -14.53125 5.25 -12.734375 5.25 -10.453125 C 5.25 -8.160156 5.84375 -6.359375 7.03125 -5.046875 C 8.226562 -3.734375 9.820312 -3.078125 11.8125 -3.078125 Z M 11.8125 -3.078125 "/></g></g></g><g fill="#161b6e" fill-opacity="1"><g transform="translate(241.05359, 112.589283)"><g><path d="M 3.578125 0.203125 C 2.878906 0.203125 2.304688 -0.015625 1.859375 -0.453125 C 1.410156 -0.890625 1.1875 -1.414062 1.1875 -2.03125 C 1.1875 -2.664062 1.410156 -3.203125 1.859375 -3.640625 C 2.304688 -4.078125 2.878906 -4.296875 3.578125 -4.296875 C 4.273438 -4.296875 4.847656 -4.078125 5.296875 -3.640625 C 5.742188 -3.203125 5.96875 -2.664062 5.96875 -2.03125 C 5.96875 -1.414062 5.742188 -0.890625 5.296875 -0.453125 C 4.847656 -0.015625 4.273438 0.203125 3.578125 0.203125 Z M 3.578125 0.203125 "/></g></g></g><g fill="#161b6e" fill-opacity="1"><g transform="translate(91.626118, 134.225985)"><g><path d="M 5.90625 0.171875 C 4.863281 0.171875 3.953125 -0.0507812 3.171875 -0.5 C 2.390625 -0.957031 1.773438 -1.59375 1.328125 -2.40625 C 0.890625 -3.21875 0.671875 -4.15625 0.671875 -5.21875 C 0.671875 -6.28125 0.890625 -7.21875 1.328125 -8.03125 C 1.773438 -8.84375 2.390625 -9.476562 3.171875 -9.9375 C 3.953125 -10.394531 4.863281 -10.625 5.90625 -10.625 C 6.945312 -10.625 7.859375 -10.394531 8.640625 -9.9375 C 9.421875 -9.476562 10.03125 -8.84375 10.46875 -8.03125 C 10.90625 -7.21875 11.125 -6.28125 11.125 -5.21875 C 11.125 -4.15625 10.90625 -3.21875 10.46875 -2.40625 C 10.03125 -1.59375 9.421875 -0.957031 8.640625 -0.5 C 7.859375 -0.0507812 6.945312 0.171875 5.90625 0.171875 Z M 5.90625 -1.53125 C 6.90625 -1.53125 7.695312 -1.859375 8.28125 -2.515625 C 8.875 -3.171875 9.171875 -4.070312 9.171875 -5.21875 C 9.171875 -6.363281 8.875 -7.265625 8.28125 -7.921875 C 7.695312 -8.578125 6.90625 -8.90625 5.90625 -8.90625 C 4.914062 -8.90625 4.117188 -8.578125 3.515625 -7.921875 C 2.921875 -7.265625 2.625 -6.363281 2.625 -5.21875 C 2.625 -4.070312 2.921875 -3.171875 3.515625 -2.515625 C 4.117188 -1.859375 4.914062 -1.53125 5.90625 -1.53125 Z M 5.90625 -1.53125 "/></g></g></g><g fill="#161b6e" fill-opacity="1"><g transform="translate(105.667595, 134.225985)"><g><path d="M 1.015625 0 L 1.015625 -10.453125 L 2.921875 -10.453125 L 7.828125 -3.09375 L 7.828125 -10.453125 L 9.75 -10.453125 L 9.75 0 L 7.828125 0 L 2.921875 -7.34375 L 2.921875 0 Z M 1.015625 0 "/></g></g></g><g fill="#161b6e" fill-opacity="1"><g transform="translate(118.664534, 134.225985)"><g><path d="M 1.015625 0 L 1.015625 -10.453125 L 2.921875 -10.453125 L 2.921875 -1.5 L 7.546875 -1.5 L 7.546875 0 Z M 1.015625 0 "/></g></g></g><g fill="#161b6e" fill-opacity="1"><g transform="translate(129.12476, 134.225985)"><g><path d="M 1.015625 0 L 1.015625 -10.453125 L 2.921875 -10.453125 L 2.921875 0 Z M 1.015625 0 "/></g></g></g><g fill="#161b6e" fill-opacity="1"><g transform="translate(135.302415, 134.225985)"><g><path d="M 1.015625 0 L 1.015625 -10.453125 L 2.921875 -10.453125 L 7.828125 -3.09375 L 7.828125 -10.453125 L 9.75 -10.453125 L 9.75 0 L 7.828125 0 L 2.921875 -7.34375 L 2.921875 0 Z M 1.015625 0 "/></g></g></g><g fill="#161b6e" fill-opacity="1"><g transform="translate(148.299354, 134.225985)"><g><path d="M 1.015625 0 L 1.015625 -10.453125 L 7.828125 -10.453125 L 7.828125 -8.90625 L 2.921875 -8.90625 L 2.921875 -6.046875 L 7.390625 -6.046875 L 7.390625 -4.546875 L 2.921875 -4.546875 L 2.921875 -1.53125 L 7.828125 -1.53125 L 7.828125 0 Z M 1.015625 0 "/></g></g></g><g fill="#161b6e" fill-opacity="1"><g transform="translate(159.162465, 134.225985)"><g/></g></g><g fill="#161b6e" fill-opacity="1"><g transform="translate(164.952148, 134.225985)"><g><path d="M 4.578125 0.171875 C 3.816406 0.171875 3.140625 0.0390625 2.546875 -0.21875 C 1.960938 -0.476562 1.5 -0.851562 1.15625 -1.34375 C 0.820312 -1.84375 0.648438 -2.445312 0.640625 -3.15625 L 2.65625 -3.15625 C 2.675781 -2.664062 2.851562 -2.253906 3.1875 -1.921875 C 3.519531 -1.585938 3.976562 -1.421875 4.5625 -1.421875 C 5.070312 -1.421875 5.472656 -1.539062 5.765625 -1.78125 C 6.066406 -2.03125 6.21875 -2.359375 6.21875 -2.765625 C 6.21875 -3.191406 6.085938 -3.523438 5.828125 -3.765625 C 5.566406 -4.003906 5.21875 -4.195312 4.78125 -4.34375 C 4.34375 -4.488281 3.875 -4.644531 3.375 -4.8125 C 2.5625 -5.09375 1.941406 -5.453125 1.515625 -5.890625 C 1.097656 -6.328125 0.890625 -6.910156 0.890625 -7.640625 C 0.878906 -8.253906 1.023438 -8.78125 1.328125 -9.21875 C 1.640625 -9.664062 2.054688 -10.007812 2.578125 -10.25 C 3.109375 -10.5 3.71875 -10.625 4.40625 -10.625 C 5.101562 -10.625 5.71875 -10.5 6.25 -10.25 C 6.78125 -10 7.195312 -9.648438 7.5 -9.203125 C 7.800781 -8.753906 7.960938 -8.222656 7.984375 -7.609375 L 5.9375 -7.609375 C 5.925781 -7.972656 5.785156 -8.296875 5.515625 -8.578125 C 5.242188 -8.867188 4.863281 -9.015625 4.375 -9.015625 C 3.957031 -9.023438 3.601562 -8.921875 3.3125 -8.703125 C 3.03125 -8.492188 2.890625 -8.1875 2.890625 -7.78125 C 2.890625 -7.425781 3 -7.144531 3.21875 -6.9375 C 3.4375 -6.738281 3.734375 -6.566406 4.109375 -6.421875 C 4.492188 -6.285156 4.929688 -6.140625 5.421875 -5.984375 C 5.929688 -5.804688 6.398438 -5.597656 6.828125 -5.359375 C 7.253906 -5.117188 7.597656 -4.800781 7.859375 -4.40625 C 8.117188 -4.007812 8.25 -3.503906 8.25 -2.890625 C 8.25 -2.347656 8.109375 -1.84375 7.828125 -1.375 C 7.554688 -0.90625 7.144531 -0.53125 6.59375 -0.25 C 6.050781 0.03125 5.378906 0.171875 4.578125 0.171875 Z M 4.578125 0.171875 "/></g></g></g><g fill="#161b6e" fill-opacity="1"><g transform="translate(176.098778, 134.225985)"><g><path d="M 3.453125 0 L 3.453125 -8.90625 L 0.40625 -8.90625 L 0.40625 -10.453125 L 8.421875 -10.453125 L 8.421875 -8.90625 L 5.359375 -8.90625 L 5.359375 0 Z M 3.453125 0 "/></g></g></g><g fill="#161b6e" fill-opacity="1"><g transform="translate(187.155881, 134.225985)"><g><path d="M 5.90625 0.171875 C 4.863281 0.171875 3.953125 -0.0507812 3.171875 -0.5 C 2.390625 -0.957031 1.773438 -1.59375 1.328125 -2.40625 C 0.890625 -3.21875 0.671875 -4.15625 0.671875 -5.21875 C 0.671875 -6.28125 0.890625 -7.21875 1.328125 -8.03125 C 1.773438 -8.84375 2.390625 -9.476562 3.171875 -9.9375 C 3.953125 -10.394531 4.863281 -10.625 5.90625 -10.625 C 6.945312 -10.625 7.859375 -10.394531 8.640625 -9.9375 C 9.421875 -9.476562 10.03125 -8.84375 10.46875 -8.03125 C 10.90625 -7.21875 11.125 -6.28125 11.125 -5.21875 C 11.125 -4.15625 10.90625 -3.21875 10.46875 -2.40625 C 10.03125 -1.59375 9.421875 -0.957031 8.640625 -0.5 C 7.859375 -0.0507812 6.945312 0.171875 5.90625 0.171875 Z M 5.90625 -1.53125 C 6.90625 -1.53125 7.695312 -1.859375 8.28125 -2.515625 C 8.875 -3.171875 9.171875 -4.070312 9.171875 -5.21875 C 9.171875 -6.363281 8.875 -7.265625 8.28125 -7.921875 C 7.695312 -8.578125 6.90625 -8.90625 5.90625 -8.90625 C 4.914062 -8.90625 4.117188 -8.578125 3.515625 -7.921875 C 2.921875 -7.265625 2.625 -6.363281 2.625 -5.21875 C 2.625 -4.070312 2.921875 -3.171875 3.515625 -2.515625 C 4.117188 -1.859375 4.914062 -1.53125 5.90625 -1.53125 Z M 5.90625 -1.53125 "/></g></g></g><g fill="#161b6e" fill-opacity="1"><g transform="translate(201.197358, 134.225985)"><g><path d="M 1.015625 0 L 1.015625 -10.453125 L 4.84375 -10.453125 C 5.6875 -10.453125 6.378906 -10.304688 6.921875 -10.015625 C 7.460938 -9.734375 7.863281 -9.347656 8.125 -8.859375 C 8.394531 -8.378906 8.53125 -7.847656 8.53125 -7.265625 C 8.53125 -6.628906 8.363281 -6.046875 8.03125 -5.515625 C 7.695312 -4.992188 7.175781 -4.613281 6.46875 -4.375 L 8.640625 0 L 6.453125 0 L 4.5 -4.125 L 2.921875 -4.125 L 2.921875 0 Z M 2.921875 -5.515625 L 4.734375 -5.515625 C 5.367188 -5.515625 5.832031 -5.671875 6.125 -5.984375 C 6.425781 -6.296875 6.578125 -6.703125 6.578125 -7.203125 C 6.578125 -7.703125 6.429688 -8.097656 6.140625 -8.390625 C 5.847656 -8.691406 5.375 -8.84375 4.71875 -8.84375 L 2.921875 -8.84375 Z M 2.921875 -5.515625 "/></g></g></g><g fill="#161b6e" fill-opacity="1"><g transform="translate(212.73196, 134.225985)"><g><path d="M 1.015625 0 L 1.015625 -10.453125 L 7.828125 -10.453125 L 7.828125 -8.90625 L 2.921875 -8.90625 L 2.921875 -6.046875 L 7.390625 -6.046875 L 7.390625 -4.546875 L 2.921875 -4.546875 L 2.921875 -1.53125 L 7.828125 -1.53125 L 7.828125 0 Z M 1.015625 0 "/></g></g></g></svg>